<?xml version="1.0" standalone="no"?>
<!DOCTYPE svg PUBLIC "-//W3C//DTD SVG 20010904//EN"
 "http://www.w3.org/TR/2001/REC-SVG-20010904/DTD/svg10.dtd">
<svg version="1.0" xmlns="http://www.w3.org/2000/svg"
 width="390.000000pt" height="390.000000pt" viewBox="0 0 390.000000 390.000000"
 preserveAspectRatio="xMidYMid meet">

<g transform="translate(0.000000,390.000000) scale(0.100000,-0.100000)"
fill="#000000" stroke="none">
<path d="M1825 3808 c-191 -11 -423 -67 -600 -145 -512 -225 -919 -690 -1060
-1211 -63 -233 -70 -285 -69 -532 0 -246 10 -328 66 -540 152 -574 613 -1055
1208 -1258 209 -71 311 -87 575 -87 247 0 343 13 525 70 339 106 651 305 865
551 115 131 143 170 217 296 88 149 146 288 188 453 140 543 60 1076 -231
1547 -171 277 -496 559 -804 698 -270 123 -572 177 -880 158z m427 -127 c612
-122 1126 -560 1332 -1132 92 -256 131 -534 109 -769 -8 -81 -9 -85 -34 -88
-21 -3 -28 4 -44 37 -23 53 -94 124 -149 151 -100 48 -203 44 -308 -12 -67
-36 -107 -79 -144 -155 -20 -43 -29 -53 -50 -53 -33 0 -93 -26 -123 -53 -28
-26 -71 -113 -71 -144 l0 -23 -480 0 -480 0 0 150 c0 113 3 150 13 150 6 0
216 0 465 0 l452 0 0 165 0 165 -465 0 -465 0 0 100 0 100 758 0 759 0 13 -26
c18 -33 59 -54 106 -54 28 0 44 8 70 34 29 29 34 41 34 81 0 40 -5 52 -34 81
-25 25 -43 34 -68 34 -38 0 -92 -30 -108 -59 -11 -21 -14 -21 -770 -21 l-760
0 0 170 0 170 465 0 465 0 0 165 0 165 -645 0 -645 0 0 -545 c0 -512 -1 -545
-17 -545 -10 0 -169 -3 -354 -6 -186 -4 -375 -3 -422 1 -81 6 -86 8 -97 35
-27 66 -135 80 -184 24 -46 -54 -43 -112 7 -166 44 -47 127 -36 177 24 14 17
41 18 450 16 l435 -3 3 -82 3 -83 -483 -1 c-266 -1 -528 -3 -583 -5 -143 -5
-168 -4 -174 2 -12 12 -13 359 -1 452 37 301 150 599 316 829 178 246 422 458
652 565 195 90 381 149 557 174 131 19 383 12 517 -15z m1226 -1378 c3 -28 -1
-33 -23 -39 -31 -8 -55 10 -55 41 0 30 9 36 45 33 26 -3 30 -7 33 -35z m-2982
-388 c12 -18 11 -24 -2 -43 -34 -49 -103 -6 -74 47 14 28 57 25 76 -4z m2888
-79 c78 -24 123 -61 155 -130 16 -34 31 -68 34 -78 5 -14 12 -15 47 -6 22 6
44 8 47 4 9 -9 -11 -123 -39 -221 l-23 -80 -342 -3 -341 -2 -30 25 c-108 91
-19 269 125 252 37 -4 43 -2 43 14 0 35 41 124 72 156 44 45 119 79 184 82 11
1 42 -5 68 -13z m-2969 -235 c51 -23 92 -71 101 -116 6 -31 10 -35 39 -35 35
0 85 -38 85 -64 0 -28 -23 -66 -44 -72 -12 -2 -84 -3 -161 -2 l-140 3 -26 90
c-43 148 -44 161 -14 181 24 16 73 31 105 33 8 0 33 -8 55 -18z m1035 -320 l0
-330 -87 -3 c-84 -3 -87 -2 -106 25 -63 85 -208 88 -293 6 l-31 -30 -34 20
c-70 41 -154 56 -321 55 l-157 0 -40 91 c-22 51 -43 99 -47 108 -5 15 7 17
125 17 145 0 184 10 219 55 53 67 29 163 -53 206 -25 13 -45 27 -45 30 0 3
-11 23 -25 43 l-24 36 459 0 460 0 0 -329z m1340 79 c0 -16 61 -80 91 -96 23
-11 90 -14 359 -14 l331 0 -6 -22 c-4 -13 -18 -43 -30 -68 -13 -25 -27 -56
-31 -70 -4 -14 -14 -35 -22 -48 l-14 -22 -494 0 -494 0 -5 28 c-4 15 -8 36
-10 48 -7 34 -72 92 -117 104 -163 44 -295 -148 -191 -278 77 -97 208 -97 285
-1 l31 39 480 0 479 0 -20 -32 c-32 -50 -90 -124 -168 -212 -81 -93 -50 -85
-289 -71 -172 10 -280 -4 -393 -49 -62 -25 -85 -30 -103 -23 -13 6 -67 10
-119 10 -114 1 -189 -17 -318 -78 l-93 -44 -77 39 c-110 56 -209 81 -312 79
-47 -1 -103 -2 -125 -2 -22 0 -73 12 -114 27 -108 40 -230 51 -414 37 l-152
-11 -55 58 c-101 106 -210 248 -210 276 0 4 60 6 133 4 142 -5 213 -23 289
-73 52 -34 69 -32 98 15 56 90 176 92 231 4 l21 -34 104 0 104 0 0 -40 0 -40
180 0 180 0 0 285 0 285 490 0 c308 0 490 -4 490 -10z m-430 -249 c62 -45 61
-132 -3 -171 -111 -68 -224 74 -129 162 15 14 34 28 42 31 22 8 61 -1 90 -22z
m-1246 -528 c3 -4 -26 -39 -65 -79 l-72 -72 -66 50 c-36 28 -77 60 -89 72
l-24 21 49 6 c71 9 259 10 267 2z m1894 0 c45 -3 82 -9 82 -13 0 -4 -39 -37
-87 -74 l-87 -67 -72 72 c-40 40 -71 76 -68 81 6 10 117 10 232 1z m-570 -181
c-232 -1 -426 2 -431 7 -19 19 136 88 243 107 79 14 182 6 233 -17 22 -10 30
-8 59 14 18 13 58 34 88 45 l55 20 88 -86 87 -87 -422 -3z m-1160 148 c24 -11
56 -29 71 -39 26 -19 31 -19 76 -6 63 19 162 19 239 -1 70 -18 206 -80 206
-94 0 -6 -158 -10 -422 -10 l-423 0 85 85 c51 52 93 85 105 85 11 0 39 -9 63
-20z m114 -267 c38 -37 68 -71 68 -74 0 -9 -131 41 -234 89 -75 35 -78 37 -50
43 16 4 56 7 89 8 l59 1 68 -67z m273 -33 c110 -111 110 -111 -16 -86 -61 11
-73 18 -143 81 -42 38 -76 69 -76 71 0 1 -3 9 -6 18 -5 14 4 16 67 16 l74 0
100 -100z m563 82 c-7 -10 -54 -57 -104 -105 l-91 -87 -87 0 -88 0 -104 97
c-57 53 -104 100 -104 105 0 4 133 8 296 8 281 0 295 -1 282 -18z m242 10 c0
-5 -37 -45 -82 -89 -80 -77 -85 -81 -149 -92 -129 -22 -129 -22 -16 89 l102
100 73 0 c39 0 72 -4 72 -8z m250 -2 c22 -7 16 -12 -63 -50 -75 -35 -218 -90
-236 -90 -3 0 28 34 69 75 l74 75 66 -1 c36 -1 76 -4 90 -9z"/>
<path d="M1761 3527 c-16 -16 -14 -34 5 -41 21 -8 34 1 34 24 0 22 -23 33 -39
17z"/>
<path d="M2304 3485 c-8 -19 3 -35 26 -35 19 0 30 17 23 38 -6 17 -42 15 -49
-3z"/>
<path d="M1580 3464 c-11 -12 -10 -18 3 -31 8 -9 23 -13 31 -10 21 8 21 43 0
51 -21 8 -20 8 -34 -10z"/>
<path d="M1958 3469 c-21 -12 -24 -69 -6 -87 18 -18 63 -14 81 6 45 50 -17
115 -75 81z"/>
<path d="M2612 3355 c-18 -8 -40 -28 -50 -45 l-17 -30 -556 0 c-552 0 -556 0
-575 21 -57 63 -146 65 -201 5 -28 -30 -33 -43 -33 -83 0 -57 28 -109 68 -124
15 -6 49 -9 76 -6 40 4 55 11 78 36 15 17 28 40 28 51 0 20 8 20 558 20 555 0
559 0 578 -21 23 -25 66 -49 89 -49 10 0 32 7 51 16 87 42 85 174 -3 210 -40
17 -49 17 -91 -1z m73 -71 c20 -20 16 -53 -7 -68 -37 -23 -76 35 -48 70 16 18
35 18 55 -2z m-1335 -24 c25 -25 25 -51 2 -80 -39 -48 -121 -10 -107 49 12 51
68 68 105 31z"/>
<path d="M2861 3128 c-19 -49 39 -87 74 -48 15 17 16 24 7 45 -16 34 -69 36
-81 3z"/>
<path d="M1036 3008 c-21 -30 -20 -44 4 -68 24 -24 53 -26 74 -4 19 18 21 65
4 82 -20 20 -65 14 -82 -10z"/>
<path d="M694 2970 c-81 -33 -84 -164 -4 -205 77 -40 160 15 160 106 0 33 -6
47 -34 75 -35 35 -75 43 -122 24z m81 -80 c17 -18 17 -21 1 -45 -19 -29 -38
-32 -60 -9 -21 21 -20 51 2 63 25 15 37 13 57 -9z"/>
<path d="M3085 2891 c-139 -48 -148 -235 -16 -309 49 -28 95 -28 151 1 68 34
85 65 85 152 0 59 -4 79 -21 102 -45 61 -121 81 -199 54z m111 -70 c89 -54 52
-185 -51 -185 -75 0 -124 94 -81 155 34 49 82 60 132 30z"/>
<path d="M1125 2758 c-168 -59 -119 -303 57 -284 56 6 83 21 108 61 49 79 23
171 -60 213 -49 24 -61 25 -105 10z m86 -79 c43 -23 42 -106 -1 -129 -77 -41
-160 60 -100 120 22 22 70 26 101 9z"/>
<path d="M2872 2564 c-26 -18 -29 -56 -6 -78 20 -20 43 -20 72 0 27 19 28 48
2 74 -24 24 -38 25 -68 4z"/>
<path d="M585 2554 c-39 -20 -93 -72 -101 -98 -4 -12 -26 -39 -50 -62 -40 -37
-44 -44 -44 -90 0 -61 25 -105 74 -128 32 -15 64 -17 241 -14 223 3 229 5 279
71 26 35 26 104 0 148 -22 37 -86 79 -120 79 -13 0 -31 14 -45 35 -45 67 -162
97 -234 59z m153 -74 c18 -11 40 -36 48 -55 13 -32 18 -35 55 -35 66 0 114
-60 93 -115 -15 -38 -56 -45 -249 -45 -184 0 -186 0 -210 25 -14 13 -25 30
-25 38 0 22 39 67 58 67 11 0 22 16 32 47 27 85 121 120 198 73z"/>
<path d="M2544 2536 c-8 -21 3 -36 27 -36 15 0 20 6 17 22 -4 27 -35 37 -44
14z"/>
<path d="M3254 2475 c-7 -18 3 -35 22 -35 20 0 30 30 13 41 -20 12 -29 11 -35
-6z"/>
<path d="M1117 2172 c-20 -22 -22 -63 -5 -80 20 -20 65 -14 82 10 21 30 20 44
-4 68 -25 25 -52 26 -73 2z"/>
<path d="M3004 2120 c-31 -12 -74 -68 -74 -97 0 -67 57 -123 125 -123 29 0 45
8 71 34 29 29 34 41 34 80 0 39 -5 51 -35 81 -37 36 -74 44 -121 25z m80 -76
c20 -19 20 -24 0 -52 -28 -40 -74 -22 -74 29 0 39 45 53 74 23z"/>
<path d="M3511 1996 c-16 -19 -7 -46 14 -46 22 0 30 29 13 46 -13 13 -16 13
-27 0z"/>
<path d="M2105 1606 c-34 -34 -16 -86 31 -86 51 0 73 65 32 94 -30 21 -35 20
-63 -8z"/>
<path d="M1196 1505 c-7 -20 3 -45 20 -45 20 0 36 34 22 48 -16 16 -35 15 -42
-3z"/>
<path d="M883 1499 c-90 -26 -101 -164 -16 -208 54 -28 120 -6 148 49 19 37
19 61 -1 104 -24 50 -75 71 -131 55z m72 -103 c0 -52 -63 -62 -73 -12 -7 33 6
47 40 44 29 -3 33 -7 33 -32z"/>
<path d="M1172 1208 c-15 -15 -15 -61 0 -76 22 -22 67 -14 80 13 17 37 -3 75
-40 75 -15 0 -33 -5 -40 -12z"/>
<path d="M1940 1215 c-21 -26 3 -65 39 -65 37 0 57 30 41 60 -13 24 -62 27
-80 5z"/>
<path d="M2764 1156 c-9 -24 4 -48 23 -44 12 2 18 12 18 28 0 29 -32 41 -41
16z"/>
<path d="M2913 1128 c2 -7 10 -13 17 -13 7 0 15 6 18 13 2 7 -5 12 -18 12 -13
0 -20 -5 -17 -12z"/>
<path d="M1926 914 c-9 -22 17 -49 39 -40 10 3 15 15 13 28 -4 29 -42 37 -52
12z"/>
<path d="M2374 745 c-8 -21 2 -45 19 -45 20 0 40 27 33 45 -7 19 -45 20 -52 0z"/>
<path d="M1897 702 c-36 -39 -15 -82 40 -82 26 0 36 6 45 25 24 53 -46 100
-85 57z"/>
</g>
</svg>
